<svg xmlns="http://www.w3.org/2000/svg" version="1.1" xmlns:xlink="http://www.w3.org/1999/xlink" width="512" height="512" x="0" y="0" viewBox="0 0 512 512" style="enable-background:new 0 0 512 512" xml:space="preserve" class=""><g><path fill="#938787" d="M464.316 45.831v-2.207c0-18.48-15.035-33.515-33.515-33.515h-76.68a15.166 15.166 0 0 0-9.605 3.43l-26.133 21.393-27.535-30.019A15.165 15.165 0 0 0 279.674 0H81.198a33.597 33.597 0 0 0-24.714 10.876 33.594 33.594 0 0 0-8.672 25.57l19.269 219.493-19.084 199.133a33.586 33.586 0 0 0 8.558 25.737 33.58 33.58 0 0 0 24.804 10.975h39.579c3.501 0 6.895-1.212 9.604-3.43l24.857-20.348 27.764 37.806A15.164 15.164 0 0 0 195.384 512h233.447a33.575 33.575 0 0 0 24.867-11.044 33.572 33.572 0 0 0 8.477-25.852c-5.643-55.609-24.056-239.707-24.056-273.866 0-22.347 3.339-43.996 9.404-60.958 11.143-31.166 16.793-62.944 16.793-94.449z" opacity="1" data-original="#cdd2e1" class=""></path><path fill="#806f6f" d="M430.801 10.108h-76.68a15.166 15.166 0 0 0-9.605 3.43l-26.133 21.393-27.535-30.018A15.165 15.165 0 0 0 279.674 0H256v512h172.831a33.575 33.575 0 0 0 24.867-11.044 33.572 33.572 0 0 0 8.477-25.852c-5.643-55.609-24.056-239.707-24.056-273.866 0-22.347 3.339-43.996 9.404-60.958 11.143-31.166 16.793-62.944 16.793-94.449v-2.207c0-18.481-15.035-33.516-33.515-33.516z" opacity="1" data-original="#bec3d2" class=""></path><path fill="#ffffff" d="M216.872 179.851h-60.65c-8.374 0-15.162-6.789-15.162-15.162v-60.65c0-8.374 6.789-15.162 15.162-15.162h60.65c8.374 0 15.162 6.789 15.162 15.162v60.65c0 8.374-6.789 15.162-15.162 15.162zm-45.488-30.325h30.325v-30.325h-30.325z" opacity="1" data-original="#afb4c8" class=""></path><path fill="#ffffff" d="M323.771 179.851c-25.082 0-45.487-20.405-45.487-45.487s20.405-45.487 45.487-45.487 45.487 20.405 45.487 45.487-20.405 45.487-45.487 45.487zm0-60.649c-8.361 0-15.162 6.801-15.162 15.162s6.801 15.162 15.162 15.162 15.162-6.801 15.162-15.162-6.801-15.162-15.162-15.162zM354.095 423.123h-60.65c-8.374 0-15.162-6.789-15.162-15.162v-60.65c0-8.374 6.789-15.162 15.162-15.162h60.65c8.374 0 15.162 6.789 15.162 15.162v60.65c.001 8.374-6.788 15.162-15.162 15.162zm-45.487-30.325h30.325v-30.325h-30.325z" opacity="1" data-original="#9196aa" class=""></path><path fill="#ffffff" d="m207.989 256 19.604-19.604c5.921-5.921 5.921-15.522 0-21.443s-15.522-5.921-21.443 0l-19.604 19.604-19.604-19.604c-5.921-5.921-15.522-5.921-21.443 0s-5.921 15.522 0 21.443L165.104 256 145.5 275.604c-5.921 5.921-5.921 15.522 0 21.443 2.96 2.96 6.841 4.441 10.721 4.441s7.761-1.481 10.721-4.441l19.604-19.604 19.604 19.604c2.96 2.96 6.841 4.441 10.721 4.441s7.761-1.481 10.721-4.441c5.921-5.921 5.921-15.522 0-21.443z" opacity="1" data-original="#afb4c8" class=""></path><path fill="#ffffff" d="M323.771 301.487c-8.374 0-15.162-6.789-15.162-15.162v-60.65c0-8.374 6.789-15.162 15.162-15.162 8.374 0 15.162 6.789 15.162 15.162v60.65c0 8.374-6.789 15.162-15.162 15.162z" opacity="1" data-original="#9196aa" class=""></path><path fill="#ffffff" d="M216.872 392.798h-60.65c-8.374 0-15.162-6.789-15.162-15.162s6.789-15.162 15.162-15.162h60.65c8.374 0 15.162 6.789 15.162 15.162s-6.789 15.162-15.162 15.162z" opacity="1" data-original="#afb4c8" class=""></path></g></svg>